<svg xmlns="http://www.w3.org/2000/svg" viewBox="0 0 284.83 51.41"><defs><style>.cls-1{fill:#eaeaea;}.cls-2{fill:#bfbfbf;}.cls-3{fill:#020202;}.cls-4{fill:#fff;}</style></defs><g id="Layer_2" data-name="Layer 2"><g id="Layer_1-2" data-name="Layer 1"><path class="cls-1" d="M10.94,4.88c.18-.56-.75,0-2.15,1.24-.44.37-.53.44-.9.79-.13.13-.27.25-.4.39l-.38.37-.37.39-.38.42L5.94,9l-.5.6-.18.23c-.58.76-.79,1.13-.73,1.31.78.35,6-5,6.41-6.22A25.17,25.17,0,0,0,7.46,7.63a25.17,25.17,0,0,1,3.48-2.75"/><path class="cls-2" d="M1.13,18.17C.91,19,.61,20.1.43,20.93.09,22.66,4.14,20,9.7,14.7,15.45,9.28,20.63,3.21,21.27,1.14a25.54,25.54,0,0,0-4.29,1C15.77,5.36,3.8,17.54,1.69,17.08a.68.68,0,0,1,.05-.63c-.19.51-.45,1.19-.61,1.72"/><path class="cls-2" d="M21.27,1.14c.09-.39.18-.78-.45-.68-1,.24-2.31.58-3.29.88l-1.17.44c.55-.23.79-.11.62.4a25.54,25.54,0,0,1,4.29-1"/><path class="cls-2" d="M.23,29.64c.12.68.27,1.59.43,2.26C2.34,35,29.88,8.48,32,1.67A27.24,27.24,0,0,0,27.66.92c-.86,2.75-7.73,10.8-15.34,18C5.3,25.53.09,29.11,0,27.46c.07.66.12,1.53.23,2.18"/><path class="cls-2" d="M32,1.67c.15-.69.15-.83-.23-1C31.11.51,30.21.32,29.52.22S28,0,27.35,0c.38,0,.5.32.31.92A27.24,27.24,0,0,1,32,1.67"/><path class="cls-2" d="M4.73,40.81l.81,1.07C6.48,43.05,13,38.4,21.65,30.26c10-9.45,19.07-20.06,20.2-23.67a25.87,25.87,0,0,0-3.8-2.53C37,7.55,28.24,17.77,18.57,26.89,10.1,34.88,3.72,39.38,3,38c.5.84,1.16,2,1.73,2.78"/><path class="cls-2" d="M41.85,6.59C42,6,42,5.65,41.78,5.48l-1.07-.8c-.82-.54-1.93-1.25-2.79-1.73.27.14.32.5.13,1.11a25.87,25.87,0,0,1,3.8,2.53"/><path class="cls-2" d="M11.3,47.16c.65.4,1.51.94,2.17,1.3,1.27.67,7.41-3.76,15.41-11.3C38.54,28,47.26,17.81,48.35,14.32a25.22,25.22,0,0,0-2.5-3.75C42.53,19.21,13.41,47.63,9.61,45.93c.51.37,1.16.89,1.69,1.23"/><path class="cls-2" d="M48.35,14.32a1.3,1.3,0,0,0,0-.94c-.59-1-1.41-2.29-2.07-3.23l-.48-.62c.15.38.16.39,0,1a25.22,25.22,0,0,1,2.5,3.75"/><path class="cls-2" d="M22.6,51.29l1.44.12c1.35.07,6-3.35,11.93-8.95,7.61-7.19,14.48-15.24,15.33-18a24.57,24.57,0,0,0-.65-4.24c-1,3.11-8.76,12.25-17.4,20.4C26.32,47.16,21,51.08,19.6,50.77c.9.17,2.09.42,3,.52"/><path class="cls-2" d="M51.3,24.47a1.41,1.41,0,0,0,.09-.52c-.08-.82-.18-1.9-.31-2.71l-.35-1.73a1.4,1.4,0,0,1-.08.72,24.57,24.57,0,0,1,.65,4.24"/><path class="cls-2" d="M30.62,50.94a26.31,26.31,0,0,0,4-1.13l.44-.17c1.07-.43,3.36-2.21,6.18-4.87C45.27,40.93,49,36.64,49.66,35c.18-.51.44-1.2.6-1.72a23.19,23.19,0,0,0,.65-2.58C49.18,35.17,34.35,50,30.56,51h.06"/><path class="cls-2" d="M50.26,33.24c.23-.82.52-1.92.7-2.76l-.05.18a23.19,23.19,0,0,1-.65,2.58"/><path class="cls-3" d="M43.29,44.38l.4-.39.38-.38.37-.39.38-.42.43-.48.49-.59.18-.23a32.57,32.57,0,0,1-3.6,3.74l1-.86"/><path class="cls-4" d="M5.48,9.91l.18-.23.49-.59.42-.48L7,8.19l.37-.39.37-.38L8.1,7,9,6.24A29.83,29.83,0,0,0,5.48,9.91"/><path class="cls-4" d="M.43,20.93c.2-.83.46-1.94.7-2.76.18-.52.41-1.21.61-1.72C3.37,13,13.07,3.23,16.36,1.78l1.17-.44c1-.29,2.3-.65,3.29-.88C16.29,1.8,1.19,17.58.43,20.93"/><path class="cls-4" d="M.66,31.9c-.13-.68-.33-1.58-.43-2.26S0,28.12,0,27.46a1.41,1.41,0,0,1,.09-.52C1,24.19,7.81,16.14,15.43,9,21.36,3.35,26-.07,27.35,0c.65.06,1.52.13,2.17.22s1.59.27,2.27.42C30.43.33,25.07,4.25,18.14,10.78,9.51,18.93,1.72,28.06.74,31.18a1.52,1.52,0,0,0-.08.72"/><path class="cls-4" d="M5.54,41.88l-.81-1.07C4.19,40,3.48,38.88,3,38a1.23,1.23,0,0,1,0-.94c1.09-3.49,9.81-13.71,19.48-22.84,8-7.54,14.14-12,15.4-11.3.85.5,2,1.18,2.79,1.73l1.07.8c-1.14-.91-7.59,3.71-16,11.68-10,9.46-19.07,20.06-20.2,23.68-.15.5-.15.85,0,1"/><path class="cls-4" d="M13.47,48.46c-.65-.38-1.53-.88-2.17-1.3s-1.2-.84-1.69-1.23c-.21-.17-.24-.54-.06-1.11,1.13-3.61,10.17-14.22,20.19-23.67C38.37,13,44.91,8.36,45.85,9.53l.48.62c.65.95,1.49,2.24,2.07,3.23-.73-1.35-7.11,3.15-15.58,11.14-9.67,9.12-18.39,19.34-19.48,22.83-.18.61-.13,1,.13,1.11"/><path class="cls-4" d="M24,51.41l-1.44-.12c-.9-.14-2.1-.33-3-.52-.33-.08-.42-.42-.23-1,1-3.12,8.77-12.25,17.4-20.4C44.55,22,50.36,18,50.73,19.51l.35,1.73c.11.81.25,1.89.31,2.71-.09-1.65-5.3,1.93-12.32,8.55-7.61,7.19-14.48,15.24-15.34,18-.18.6-.07.9.31.92"/><path class="cls-4" d="M49.72,34.78c.2-.51.38-1,.54-1.54-.18.52-.41,1.21-.6,1.72l.06-.18"/><path class="cls-4" d="M49.72,34.78c.48-1.52-2.56.47-6.79,4.46s-8,8.46-8.52,10c-.16.51.07.63.61.41l-.44.17a25.75,25.75,0,0,1-4,1.13h-.06c-.44.09-.61-.12-.44-.68.65-2.07,5.83-8.14,11.57-13.56,5.57-5.25,9.62-8,9.27-6.23-.2.83-.46,1.94-.7,2.76-.16.52-.34,1-.54,1.54"/><path class="cls-4" d="M43.72,43.66a24.55,24.55,0,0,0,2.93-3.31,4.54,4.54,0,0,1-.73,1.15l-.18.23-.49.59-.43.48c-.13.14-.25.29-.38.42l-.37.39-.38.38-.4.39c-.25.22-.53.48-1,.86-2,1.73-2.11,1.39-2.1,1.25.11-1.08,5.93-6.82,6.43-6.32,0,0,0,.12,0,.18a24.55,24.55,0,0,1-2.93,3.31"/><path class="cls-4" d="M92.65,12.89h5.19v9.57H109.4V13h5.32V37.46h-5.21V27.22H97.88V37.44H92.65Z"/><path class="cls-4" d="M210.53,37.5c-1.86,0-3.58,0-5.3,0a1.3,1.3,0,0,1-.88-.68c-.43-.93-.7-1.92-1.13-2.85a1.16,1.16,0,0,0-.84-.59q-4.62-.06-9.24,0a1.15,1.15,0,0,0-.84.58c-.44,1-.73,2-1.15,3a1.09,1.09,0,0,1-.74.58c-1.79.05-3.57,0-5.49,0,1.28-3.32,2.52-6.51,3.75-9.71,1.78-4.63,3.58-9.26,5.34-13.91a1.31,1.31,0,0,1,1.48-1.05c1.61.08,3.23,0,4.84.06a1.34,1.34,0,0,1,1,.66c3,7.79,6,15.59,9.06,23.39A4.39,4.39,0,0,1,210.53,37.5ZM197.77,18.2,194,28.6h7.55C200.3,25.17,199.09,21.86,197.77,18.2Z"/><path class="cls-4" d="M284.25,15.93l-2.72,3.64a46.71,46.71,0,0,0-5-2.12,8.84,8.84,0,0,0-3.59-.11A3.31,3.31,0,0,0,271,18.5a1.43,1.43,0,0,0,.47,2.33,15.39,15.39,0,0,0,2.74,1.06c2,.63,4.1,1.13,6.09,1.83a6.11,6.11,0,0,1,4.44,5.34,7.22,7.22,0,0,1-3.09,7.18c-4.43,3.09-13.66,1.89-17.25-2.3l2.87-4.08a10.11,10.11,0,0,0,5.54,3.1,14.88,14.88,0,0,0,3.71.11,4.14,4.14,0,0,0,2.06-.92,1.82,1.82,0,0,0-.31-3.23,19.11,19.11,0,0,0-3.2-1.08c-1.75-.53-3.54-1-5.26-1.56a6.19,6.19,0,0,1-4.61-6,6.84,6.84,0,0,1,4-6.64C273.6,11.34,280.42,12.39,284.25,15.93Z"/><path class="cls-4" d="M155.66,33.89l2.84-4a9.72,9.72,0,0,0,5.55,3.1,16.59,16.59,0,0,0,4.45-.09,2.42,2.42,0,0,0,2.12-2.22c0-1.26-.9-1.81-1.9-2.14-1.35-.44-2.76-.71-4.13-1.09-1.16-.33-2.31-.7-3.45-1.1-2.79-1-4.51-2.8-4.7-5.83a6.92,6.92,0,0,1,4-6.88c4.23-2.29,11.44-1.17,15,2.34l-2.89,3.9a9.94,9.94,0,0,0-6.28-2.62,7.62,7.62,0,0,0-3.09.46,2.38,2.38,0,0,0-1.2,1.75,2.24,2.24,0,0,0,1.16,1.61,20.21,20.21,0,0,0,3.22,1.05c1.75.53,3.52,1,5.23,1.63A6.19,6.19,0,0,1,176,29.42a7.16,7.16,0,0,1-3.52,7.07c-4.49,2.73-13.15,1.53-16.7-2.31C155.74,34.13,155.73,34.05,155.66,33.89Z"/><path class="cls-4" d="M67.47,28.71v8.72H62.18V12.94a4.29,4.29,0,0,1,.55-.08c3.93,0,7.85,0,11.78,0a7.45,7.45,0,0,1,7.29,5.74c.92,3.62-.48,7.41-3.58,9a11.69,11.69,0,0,1-4.3,1.07C71.84,28.84,69.75,28.71,67.47,28.71Zm0-4.77c2.21,0,4.3.13,6.36-.05a2.94,2.94,0,0,0,2.73-3,2.9,2.9,0,0,0-2.56-3.18,64.55,64.55,0,0,0-6.53-.06Z"/><path class="cls-4" d="M124.33,12.86c2,0,3.82,0,5.63,0,.3,0,.66.4.85.7,1.7,2.69,3.36,5.4,5,8.1.17.27.36.53.6.9,1.8-2.9,3.6-5.7,5.28-8.56a2,2,0,0,1,2.16-1.2c1.46.1,2.93,0,4.54,0-.18.35-.3.6-.44.83-2.78,4.3-5.58,8.58-8.33,12.9a3.67,3.67,0,0,0-.53,1.82c0,3,0,6,0,9h-5.36a50.41,50.41,0,0,1,0-5.36,11.81,11.81,0,0,0-2.58-8.72c-2.29-3.08-4.24-6.4-6.34-9.62C124.71,13.5,124.57,13.26,124.33,12.86Z"/><path class="cls-4" d="M220.7,12.89h5.2V32.78h10.46v4.64H220.7Z"/><path class="cls-4" d="M247.31,12.91h5.14V37.44h-5.14Z"/></g></g></svg>