<?xml version="1.0" encoding="utf-8"?>
<!-- Generator: Adobe Illustrator 26.0.3, SVG Export Plug-In . SVG Version: 6.00 Build 0)  -->
<svg version="1.1" id="Layer_1" xmlns="http://www.w3.org/2000/svg" xmlns:xlink="http://www.w3.org/1999/xlink" x="0px" y="0px"
	 viewBox="0 0 230.9 51.4" style="enable-background:new 0 0 230.9 51.4;" xml:space="preserve">
<style type="text/css">
	.st0{fill:#777777;}
</style>
<path class="st0" d="M230.3,30.1c0,0.1-0.1,0.2-0.1,0.4c-0.4,2.2-1.6,3.7-3.7,4.3c-3.9,1.2-7.7,0.8-11-1.7c-0.2-0.2-0.4-0.4-0.7-0.6
	c0.7-1,1.4-2,2.2-3.1c0.3,0.3,0.6,0.5,0.8,0.7c1.8,1.4,3.8,2,6.1,1.7c0.4,0,0.8-0.2,1.1-0.3c0.7-0.3,1.2-0.8,1.2-1.7
	c0-0.8-0.6-1.2-1.2-1.4c-0.8-0.3-1.7-0.5-2.5-0.7c-1.2-0.4-2.4-0.7-3.6-1.1c-2.1-0.7-3.4-2.2-3.5-4.5c-0.1-2.3,1-3.9,2.9-5
	c3.3-1.8,8.6-1,11.5,1.7c-0.7,1-1.4,1.9-2.2,3c-1.6-1.4-3.5-2.1-5.6-2c-0.6,0-1.3,0.2-1.8,0.5c-1,0.6-0.9,1.8,0.1,2.3
	c0.6,0.3,1.3,0.5,1.9,0.7c1.1,0.3,2.2,0.6,3.3,0.9c2.4,0.7,4.3,1.9,4.8,4.6C230.3,29.2,230.3,29.7,230.3,30.1z"/>
<path class="st0" d="M84.8,16.5c1.3,0,2.6,0,3.9,0c0,2.4,0,4.8,0,7.2c2.9,0,5.8,0,8.7,0c0-2.4,0-4.8,0-7.2c1.4,0,2.7,0,4,0
	c0,6.2,0,12.3,0,18.5c-1.3,0-2.6,0-4,0c0-2.6,0-5.1,0-7.7c-2.9,0-5.8,0-8.8,0c0,2.5,0,5.1,0,7.7c-1.4,0-2.6,0-4,0
	C84.8,28.9,84.8,22.7,84.8,16.5z"/>
<path class="st0" d="M160.4,31.9c-0.3,0.9-0.6,1.8-1,2.6c-0.1,0.2-0.4,0.5-0.7,0.5c-1.3,0-2.6,0-4,0c0.2-0.5,0.3-1,0.5-1.4
	c2.1-5.5,4.2-11,6.3-16.5c0.2-0.6,0.5-0.8,1.1-0.8c1.2,0.1,2.4,0,3.7,0c0.2,0,0.6,0.2,0.7,0.5c2.3,5.9,4.6,11.8,6.9,17.8
	c0,0.1,0,0.2,0.1,0.4c-1.5,0-3,0-4.5,0c-0.3-0.9-0.6-1.8-1-2.6c-0.1-0.2-0.4-0.5-0.6-0.5C165.4,31.9,162.9,31.9,160.4,31.9z
	 M167.2,28.4c-0.9-2.6-1.9-5.1-2.9-7.9c-1,2.8-1.9,5.3-2.9,7.9C163.4,28.4,165.2,28.4,167.2,28.4z"/>
<path class="st0" d="M147.5,18.8c-0.7,1-1.4,1.9-2.2,2.9c-1.4-1.2-2.9-1.9-4.8-2c-0.8,0-1.6,0.1-2.3,0.4c-0.4,0.2-0.9,0.8-0.9,1.3
	c0,0.4,0.5,1,0.9,1.2c0.8,0.4,1.6,0.5,2.4,0.8c1.3,0.4,2.7,0.8,4,1.2c2,0.7,3.2,2.1,3.4,4.3c0.2,2.3-0.7,4.1-2.7,5.3
	c-3.4,2.1-10,1.2-12.6-1.7c0,0,0-0.1-0.1-0.2c0.7-1,1.4-2,2.2-3c1.2,1.2,2.6,2.1,4.2,2.3c1.1,0.1,2.3,0.1,3.4-0.1
	c1-0.1,1.6-0.9,1.6-1.7c0-0.9-0.7-1.4-1.4-1.6c-1-0.3-2.1-0.5-3.1-0.8c-0.9-0.2-1.7-0.5-2.6-0.8c-2.1-0.7-3.4-2.1-3.6-4.4
	c-0.1-2.4,1-4.1,3-5.2C139.3,15.3,144.8,16.1,147.5,18.8z"/>
<path class="st0" d="M65.7,28.4c0,2.3,0,4.4,0,6.6c-1.4,0-2.7,0-4,0c0-6.2,0-12.3,0-18.6c0.4,0,0.8,0,1.3,0c2.6,0,5.2,0,7.8,0
	c2.5,0,4.4,1.1,5.4,3.4c1,2.4,0.7,4.7-1.1,6.7c-1.2,1.3-2.8,1.8-4.5,1.8C69.1,28.5,67.5,28.4,65.7,28.4z M65.8,24.8
	c1.7,0,3.3,0.1,4.8,0c1.3-0.1,2.1-1.2,2-2.5c0-1.2-0.9-2.2-2.2-2.3c-1.5-0.1-3.1,0-4.7,0C65.8,21.6,65.8,23.2,65.8,24.8z"/>
<path class="st0" d="M127.1,16.5c-2.3,3.6-4.5,6.9-6.7,10.3c-0.3,0.4-0.4,1-0.4,1.5c0,2.2,0,4.5,0,6.8c-1.3,0-2.6,0-4,0
	c0-0.3,0-0.5,0-0.8c0-2,0-4,0-6c0-0.5-0.2-1-0.4-1.4c-2.1-3.2-4.1-6.4-6.2-9.6c-0.1-0.2-0.3-0.4-0.5-0.8c1.5,0,3,0,4.4,0
	c0.2,0,0.4,0.3,0.5,0.5c1.4,2.2,2.8,4.5,4.2,6.8c0.2-0.3,0.4-0.6,0.6-0.9c1.2-2,2.5-3.9,3.7-5.9c0.3-0.4,0.5-0.6,1.1-0.6
	C124.4,16.5,125.7,16.5,127.1,16.5z"/>
<path class="st0" d="M185.7,31.6c2.7,0,5.3,0,7.9,0c0,1.2,0,2.3,0,3.5c-3.9,0-7.9,0-11.9,0c0-6.2,0-12.3,0-18.5c1.3,0,2.6,0,3.9,0
	C185.7,21.5,185.7,26.5,185.7,31.6z"/>
<path class="st0" d="M201.9,16.5c1.3,0,2.6,0,3.9,0c0,6.2,0,12.4,0,18.5c-1.3,0-2.6,0-3.9,0C201.9,28.9,201.9,22.7,201.9,16.5z"/>
<g>
	<g>
		<path class="st0" d="M2.5,17.3c-0.1,0.4-0.3,0.9-0.4,1.2C2.2,18.1,2.3,17.7,2.5,17.3z"/>
	</g>
	<g>
		<g>
			<path class="st0" d="M1.1,29.1C1,28.6,1,28,0.9,27.5C1,28,1.1,28.6,1.1,29.1z"/>
		</g>
		<g>
			<path class="st0" d="M5.3,39.8c-0.3-0.4-0.6-0.8-0.8-1.3C4.8,38.9,5.1,39.4,5.3,39.8z"/>
		</g>
		<g>
			<path class="st0" d="M11.5,45.9c-0.3-0.2-0.5-0.4-0.8-0.6C11,45.5,11.3,45.7,11.5,45.9z"/>
		</g>
		<g>
			<path class="st0" d="M33.2,48.9c-0.4,0.1-0.7,0.2-1.1,0.3C32.4,49.2,32.7,49,33.2,48.9z"/>
			<path class="st0" d="M48.7,33.2c0,0.1-0.1,0.3-0.1,0.4c0,0,0,0.1,0,0.1c0,0,0-0.1,0-0.1C48.6,33.5,48.6,33.3,48.7,33.2z"/>
		</g>
	</g>
	<g>
		<g>
			<g>
				<path class="st0" d="M31.3,1.9c-0.3-0.1-0.7-0.2-1.1-0.2C30.6,1.8,31,1.9,31.3,1.9z"/>
				<path class="st0" d="M5.5,11.6c-0.1-0.2,0.1-0.5,0.7-1.2l0.2-0.2C6.6,10,6.6,9.9,6.9,9.6C7,9.5,7,9.5,7.3,9.2
					C7.4,9,7.5,8.9,7.7,8.8C7.8,8.7,7.9,8.5,8,8.4c0.1-0.1,0.2-0.2,0.4-0.3c0.1-0.1,0.3-0.2,0.4-0.4C9.1,7.4,9.2,7.3,9.6,7
					c1.4-1.2,2.2-1.7,2.1-1.1C11.2,7,6.3,12,5.5,11.6z"/>
				<path class="st0" d="M45.2,39.8c0,0,0,0.1,0,0.2c-0.1,0.2-0.3,0.6-0.7,1.1l-0.2,0.2c-0.3,0.4-0.3,0.4-0.5,0.6
					c-0.3,0.3-0.3,0.3-0.4,0.5c-0.1,0.1-0.2,0.3-0.4,0.4c-0.1,0.1-0.2,0.2-0.3,0.4l-0.4,0.4c-0.1,0.1-0.3,0.2-0.4,0.4
					c-0.2,0.2-0.5,0.5-0.9,0.8c-1.9,1.6-2,1.3-2,1.2C39.2,44.7,44.8,39.3,45.2,39.8z"/>
				<path class="st0" d="M10.7,45.3c-0.3-0.2-0.6-0.4-0.8-0.6C10.2,44.9,10.4,45.1,10.7,45.3z"/>
				<path class="st0" d="M49.7,24.9c-0.6,1.9-4.2,6.4-9,11.3c5.2-4.8,8.9-7.2,8.6-5.6c0,0,0,0.1,0,0.2c0,0.1-0.1,0.3-0.1,0.5
					c-0.1,0.2-0.1,0.5-0.2,0.7c0,0.1-0.1,0.2-0.1,0.4c-0.1,0.3-0.2,0.7-0.3,1c0,0.1-0.1,0.2-0.1,0.4c0,0,0,0.1,0,0.1
					c-0.1,0.2-0.1,0.4-0.2,0.6c0,0.1-0.1,0.2-0.1,0.4c0,0.1,0,0.1-0.1,0.2c-0.7,1.6-4.2,5.6-8.1,9.2c-2.7,2.5-4.9,4.1-5.9,4.5
					l-0.4,0.2c-0.1,0-0.2,0.1-0.3,0.1c-0.1,0-0.2,0-0.2,0.1c-0.4,0.1-0.8,0.2-1.1,0.3c-0.1,0-0.1,0-0.2,0c0,0,0,0-0.1,0
					c-0.5,0.1-1,0.2-2,0.5l0,0c-0.4,0.1-0.6-0.1-0.4-0.7c0.4-1.3,2.8-4.4,6.1-7.8c-0.2,0.1-0.3,0.3-0.5,0.4
					c-5.7,5.2-10.1,8.4-11.4,8.4L22.2,50c-0.1,0-0.2,0-0.3-0.1c-0.3-0.1-0.7-0.1-1-0.2c-0.2,0-0.3-0.1-0.5-0.1
					c-0.2,0-0.5-0.1-0.7-0.2c-0.1,0-0.2,0-0.3-0.1c-0.3-0.1-0.4-0.4-0.2-1c0.7-2.2,4.9-7.4,10.4-13c-0.4,0.4-0.9,0.8-1.3,1.2
					c-7.7,7.1-13.5,11.2-14.7,10.5c-0.1,0-0.2-0.1-0.2-0.1c-0.2-0.2-0.5-0.3-0.8-0.5c-0.4-0.2-0.7-0.4-1-0.6
					c-0.2-0.2-0.5-0.4-0.8-0.6c-0.3-0.2-0.6-0.4-0.8-0.6c-0.2-0.2-0.2-0.5-0.1-1c0.6-1.8,3.1-5.2,6.8-9.4c-5.8,4.9-9.8,7.4-10.6,6.5
					l-0.8-1c-0.2-0.4-0.5-0.9-0.8-1.3c-0.1-0.1-0.1-0.2-0.2-0.3c-0.1-0.2-0.3-0.5-0.4-0.7c-0.1-0.1-0.1-0.2-0.2-0.3
					c-0.1-0.2-0.1-0.5,0-0.9c0.8-2.6,6.1-9,12.8-15.8c-7.1,6.7-14.2,12.3-15,10.8c0-0.1,0-0.2-0.1-0.4c0-0.1,0-0.3-0.1-0.4
					c0-0.1,0-0.2-0.1-0.3c0-0.1-0.1-0.3-0.1-0.4c0-0.1-0.1-0.3-0.1-0.4c0-0.1,0-0.2,0-0.2c0-0.5-0.1-1-0.2-1.6c0-0.2,0-0.3,0-0.5
					c0-0.1,0-0.3,0.1-0.5c0.5-1.6,3.3-5.2,7-9.3c-4.2,3.6-7,5.3-6.7,3.9c0-0.1,0-0.1,0-0.2c0-0.1,0.1-0.3,0.1-0.5
					c0.1-0.2,0.1-0.5,0.2-0.7c0.1-0.5,0.2-0.9,0.4-1.3c0.1-0.4,0.3-0.8,0.4-1.2c0-0.1,0-0.1,0.1-0.2c0-0.1,0-0.1,0.1-0.2
					c1.6-3.3,10.9-12.4,14-13.8L16.9,3l0.9-0.3c0.2-0.1,0.5-0.1,0.8-0.2c0.3-0.1,0.5-0.1,0.8-0.2c0.5-0.1,1.1-0.3,1.6-0.4
					c0.6-0.1,0.5,0.3,0.4,0.6c-0.3,1.1-2,3.2-4.3,5.8c5-4.5,8.9-7.2,10.1-7.1c0.1,0,0.2,0,0.2,0c0.1,0,0.2,0,0.4,0
					c0.1,0,0.3,0,0.4,0c0.3,0,0.5,0.1,0.8,0.1c0.1,0,0.2,0,0.2,0c0.2,0,0.3,0.1,0.5,0.1c0.2,0,0.4,0.1,0.6,0.1
					c0.4,0.1,0.8,0.2,1.1,0.2c0.4,0.2,0.4,0.3,0.2,1c-0.8,2.5-5.4,8-10.8,13.5c0.6-0.5,1.1-1.1,1.7-1.6C30.1,7.7,36,3.6,37.2,4.2
					C38,4.7,39,5.4,39.8,5.9l1,0.8c0.2,0.2,0.2,0.5,0,1c-0.6,1.8-3.1,5.2-6.8,9.4c5.8-4.9,9.9-7.4,10.6-6.5l0.5,0.6
					c0.6,0.9,1.4,2.1,1.9,3.1c0.1,0.2,0.1,0.5,0,0.9c-0.8,2.5-5.6,8.4-11.9,14.9c0.2-0.2,0.5-0.5,0.8-0.7c7.5-6.9,13-10.6,13.3-9.2
					l0.3,1.7c0.1,0.8,0.2,1.8,0.3,2.6C49.8,24.5,49.8,24.7,49.7,24.9z"/>
				<g>
					<path class="st0" d="M48.7,33.2c0,0.1-0.1,0.3-0.1,0.4h0"/>
					<path class="st0" d="M31.8,49.3c-0.7,0.2-1.1,0.3-2,0.5C30.8,49.6,31.4,49.4,31.8,49.3z"/>
					<path class="st0" d="M48.7,33.2c0,0.1-0.1,0.3-0.1,0.4h0C48.6,33.5,48.6,33.3,48.7,33.2z"/>
				</g>
			</g>
		</g>
	</g>
</g>
<image style="overflow:visible;" width="257" height="217" xlink:href="4221B3DB.jpg"  transform="matrix(1 0 0 1 306.4923 -138.9343)">
</image>
</svg>
