<?xml version="1.0" encoding="utf-8"?>
<!-- Generator: Adobe Illustrator 26.0.3, SVG Export Plug-In . SVG Version: 6.00 Build 0)  -->
<svg version="1.1" id="Layer_1" xmlns="http://www.w3.org/2000/svg" xmlns:xlink="http://www.w3.org/1999/xlink" x="0px" y="0px"
	 viewBox="0 0 230.9 51.4" style="enable-background:new 0 0 230.9 51.4;" xml:space="preserve">
<style type="text/css">
	.st0{fill:#FFFFFF;}
	.st1{fill:#BFBFBF;}
	.st2{fill:#020202;}
</style>
<path class="st0" d="M10.9,4.9c0.2-0.6-0.8,0-2.2,1.2C8.3,6.5,8.2,6.6,7.9,6.9C7.7,7,7.6,7.2,7.5,7.3L7.1,7.7L6.7,8.1L6.3,8.5L5.9,9
	L5.4,9.6L5.2,9.8c-0.6,0.8-0.8,1.1-0.7,1.3C5.3,11.5,10.5,6.1,10.9,4.9C9.7,5.7,8.5,6.6,7.4,7.6C8.5,6.6,9.7,5.7,10.9,4.9"/>
<path class="st0" d="M1.1,18.2c-0.2,0.8-0.5,1.9-0.7,2.8c-0.3,1.7,3.7-0.9,9.3-6.2C15.4,9.3,20.6,3.2,21.3,1.1
	c-1.5,0.2-2.9,0.5-4.3,1C15.8,5.4,3.8,17.5,1.7,17.1c-0.1-0.2-0.1-0.4,0-0.6C1.5,17,1.3,17.6,1.1,18.2"/>
<path class="st0" d="M21.3,1.1c0.1-0.4,0.2-0.8-0.5-0.7c-1,0.2-2.3,0.6-3.3,0.9l-1.2,0.4c0.5-0.2,0.8-0.1,0.6,0.4
	C18.4,1.7,19.8,1.4,21.3,1.1"/>
<path class="st0" d="M0.2,29.6c0.1,0.7,0.3,1.6,0.4,2.3C2.3,35,29.9,8.5,32,1.7c-1.4-0.4-2.9-0.6-4.3-0.7c-0.9,2.8-7.7,10.8-15.3,18
	C5.3,25.5,0.1,29.1,0,27.5C0.1,28.1,0.1,29,0.2,29.6"/>
<path class="st0" d="M32,1.7c0.2-0.7,0.2-0.8-0.2-1c-0.7-0.2-1.6-0.3-2.2-0.4S28,0,27.3,0c0.4,0,0.5,0.3,0.3,0.9
	C29.1,1,30.6,1.3,32,1.7"/>
<path class="st0" d="M4.7,40.8l0.8,1.1C6.5,43,13,38.4,21.6,30.3c10-9.4,19.1-20.1,20.2-23.7c-1.2-1-2.5-1.8-3.8-2.5
	c-1,3.5-9.8,13.7-19.5,22.8C10.1,34.9,3.7,39.4,3,38C3.5,38.8,4.1,40,4.7,40.8"/>
<path class="st0" d="M41.8,6.6C42,6,42,5.6,41.8,5.5l-1.1-0.8c-0.8-0.5-1.9-1.2-2.8-1.7c0.3,0.1,0.3,0.5,0.1,1.1
	C39.4,4.8,40.6,5.6,41.8,6.6"/>
<path class="st0" d="M11.3,47.2c0.6,0.4,1.5,0.9,2.2,1.3c1.3,0.7,7.4-3.8,15.4-11.3c9.7-9.2,18.4-19.4,19.5-22.8
	c-0.7-1.3-1.6-2.6-2.5-3.8c-3.3,8.6-32.4,37.1-36.2,35.4C10.1,46.3,10.8,46.8,11.3,47.2"/>
<path class="st0" d="M48.3,14.3c0.1-0.3,0.1-0.6,0-0.9c-0.6-1-1.4-2.3-2.1-3.2l-0.5-0.6c0.2,0.4,0.2,0.4,0,1
	C46.7,11.7,47.6,13,48.3,14.3"/>
<path class="st0" d="M22.6,51.3l1.4,0.1c1.4,0.1,6-3.3,11.9-9c7.6-7.2,14.5-15.2,15.3-18c-0.1-1.4-0.3-2.8-0.7-4.2
	c-1,3.1-8.8,12.3-17.4,20.4C26.3,47.2,21,51.1,19.6,50.8C20.5,50.9,21.7,51.2,22.6,51.3"/>
<path class="st1" d="M51.3,24.5c0.1-0.2,0.1-0.3,0.1-0.5c-0.1-0.8-0.2-1.9-0.3-2.7l-0.3-1.7c0,0.2,0,0.5-0.1,0.7
	C51,21.6,51.2,23,51.3,24.5"/>
<path class="st0" d="M30.6,50.9c1.4-0.3,2.7-0.6,4-1.1l0.4-0.2c1.1-0.4,3.4-2.2,6.2-4.9c4-3.8,7.8-8.1,8.4-9.8
	c0.2-0.5,0.4-1.2,0.6-1.7c0.3-0.8,0.5-1.7,0.7-2.6C49.2,35.2,34.3,50,30.6,50.9L30.6,50.9"/>
<path class="st1" d="M50.2,33.2c0.2-0.8,0.5-1.9,0.7-2.8l0,0.2C50.7,31.5,50.5,32.4,50.2,33.2"/>
<path class="st2" d="M43.3,44.4l0.4-0.4l0.4-0.4l0.4-0.4l0.4-0.4l0.4-0.5l0.5-0.6l0.2-0.2c-1.1,1.3-2.3,2.6-3.6,3.7L43.3,44.4"/>
<path class="st0" d="M0.4,20.9c0.2-0.8,0.5-1.9,0.7-2.8c0.2-0.5,0.4-1.2,0.6-1.7C3.4,13,13.1,3.2,16.3,1.8l1.2-0.4
	c1-0.3,2.3-0.6,3.3-0.9C16.3,1.8,1.2,17.6,0.4,20.9"/>
<path class="st0" d="M0.6,31.9c-0.1-0.7-0.3-1.6-0.4-2.3S0,28.1,0,27.5c0-0.2,0-0.4,0.1-0.5C1,24.2,7.8,16.1,15.4,9
	C21.3,3.3,26-0.1,27.3,0c0.6,0.1,1.5,0.1,2.2,0.2s1.6,0.3,2.3,0.4c-1.4-0.3-6.7,3.6-13.7,10.1C9.5,18.9,1.7,28.1,0.7,31.2
	C0.6,31.4,0.6,31.7,0.6,31.9"/>
<path class="st0" d="M5.5,41.9l-0.8-1.1C4.2,40,3.5,38.9,3,38c-0.1-0.3-0.1-0.6,0-0.9c1.1-3.5,9.8-13.7,19.5-22.8
	c8-7.5,14.1-12,15.4-11.3c0.8,0.5,2,1.2,2.8,1.7l1.1,0.8c-1.1-0.9-7.6,3.7-16,11.7c-10,9.5-19.1,20.1-20.2,23.7
	C5.4,41.3,5.4,41.7,5.5,41.9"/>
<path class="st0" d="M13.5,48.5c-0.6-0.4-1.5-0.9-2.2-1.3s-1.2-0.8-1.7-1.2c-0.2-0.2-0.2-0.5-0.1-1.1c1.1-3.6,10.2-14.2,20.2-23.7
	C38.4,13,44.9,8.4,45.8,9.5l0.5,0.6c0.7,0.9,1.5,2.2,2.1,3.2c-0.7-1.4-7.1,3.1-15.6,11.1c-9.7,9.1-18.4,19.3-19.5,22.8
	C13.1,48,13.2,48.3,13.5,48.5"/>
<path class="st0" d="M24,51.4l-1.4-0.1c-0.9-0.1-2.1-0.3-3-0.5c-0.3-0.1-0.4-0.4-0.2-1c1-3.1,8.8-12.2,17.4-20.4
	c7.8-7.4,13.6-11.4,14-9.9l0.3,1.7c0.1,0.8,0.2,1.9,0.3,2.7c-0.1-1.6-5.3,1.9-12.3,8.6c-7.6,7.2-14.5,15.2-15.3,18
	C23.5,51.1,23.6,51.4,24,51.4"/>
<path class="st0" d="M49.7,34.8c0.2-0.5,0.4-1,0.5-1.5c-0.2,0.5-0.4,1.2-0.6,1.7L49.7,34.8"/>
<path class="st0" d="M49.7,34.8c0.5-1.5-2.6,0.5-6.8,4.5s-8,8.5-8.5,10c-0.2,0.5,0.1,0.6,0.6,0.4l-0.4,0.2c-1.3,0.5-2.6,0.9-4,1.1
	h-0.1c-0.4,0.1-0.6-0.1-0.4-0.7c0.6-2.1,5.8-8.1,11.6-13.6c5.6-5.3,9.6-8,9.3-6.2c-0.2,0.8-0.5,1.9-0.7,2.8
	C50,33.8,49.9,34.2,49.7,34.8"/>
<path class="st0" d="M43.7,43.7c1.1-1,2.1-2.1,2.9-3.3c-0.2,0.4-0.4,0.8-0.7,1.2l-0.2,0.2l-0.5,0.6l-0.4,0.5
	c-0.1,0.1-0.2,0.3-0.4,0.4l-0.4,0.4L43.7,44l-0.4,0.4c-0.2,0.2-0.5,0.5-1,0.9c-2,1.7-2.1,1.4-2.1,1.2c0.1-1.1,5.9-6.8,6.4-6.3
	c0,0,0,0.1,0,0.2C45.7,41.5,44.8,42.6,43.7,43.7"/>
<path class="st0" d="M85.5,15.9h3.9v7.2h8.7v-7.2h4v18.5h-3.9v-7.8h-8.8v7.7h-4L85.5,15.9z"/>
<path class="st0" d="M174.7,34.5c-1.4,0-2.7,0-4,0c-0.3-0.1-0.5-0.2-0.7-0.5c-0.3-0.7-0.5-1.5-0.9-2.2c-0.1-0.2-0.4-0.4-0.6-0.5
	c-2.3,0-4.7,0-7,0c-0.3,0-0.5,0.2-0.6,0.4c-0.3,0.7-0.6,1.5-0.9,2.2c-0.1,0.2-0.3,0.4-0.6,0.4c-1.4,0-2.7,0-4.1,0
	c1-2.5,1.9-4.9,2.8-7.4c1.4-3.5,2.7-7,4-10.5c0.1-0.5,0.6-0.9,1.1-0.8c1.2,0.1,2.4,0,3.7,0c0.3,0,0.6,0.2,0.8,0.5
	c2.3,5.9,4.6,11.8,6.9,17.7C174.6,34.2,174.6,34.3,174.7,34.5z M165,19.9l-2.9,7.9h5.7C167,25.2,166,22.7,165,19.9z"/>
<path class="st0" d="M230.4,18.2l-2.1,2.8c-1.2-0.6-2.5-1.1-3.8-1.6c-0.9-0.2-1.8-0.2-2.7-0.1c-0.6,0.1-1.1,0.4-1.4,0.9
	c-0.4,0.4-0.4,1.1,0,1.5c0.1,0.1,0.2,0.2,0.3,0.2c0.7,0.3,1.4,0.6,2.1,0.8c1.5,0.5,3.1,0.9,4.6,1.4c1.8,0.5,3.2,2.1,3.4,4
	c0.4,2.1-0.6,4.2-2.3,5.4c-3.4,2.3-10.3,1.4-13.1-1.7l2.2-3.1c1.1,1.2,2.6,2,4.2,2.4c0.9,0.1,1.9,0.2,2.8,0.1
	c0.6-0.1,1.1-0.3,1.6-0.7c0.6-0.4,0.8-1.2,0.4-1.9c-0.2-0.3-0.4-0.4-0.7-0.6c-0.8-0.3-1.6-0.6-2.4-0.8c-1.3-0.4-2.7-0.7-4-1.2
	c-2.1-0.6-3.5-2.4-3.5-4.6c-0.1-2.1,1.1-4.1,3.1-5C222.4,14.7,227.5,15.5,230.4,18.2z"/>
<path class="st0" d="M133.2,31.8l2.1-3c1.1,1.2,2.6,2.1,4.2,2.3c1.1,0.1,2.3,0.1,3.4-0.1c0.9-0.1,1.5-0.8,1.6-1.7
	c0-1-0.7-1.4-1.4-1.6c-1-0.3-2.1-0.5-3.1-0.8c-0.9-0.2-1.8-0.5-2.6-0.8c-2-0.5-3.5-2.3-3.6-4.4c-0.2-2.2,1-4.3,3-5.2
	c3.2-1.7,8.6-0.9,11.3,1.8l-2.2,3c-1.3-1.2-3-1.9-4.8-2c-0.8,0-1.6,0.1-2.3,0.4c-0.5,0.3-0.8,0.8-0.9,1.3c0.1,0.5,0.4,1,0.9,1.2
	c0.8,0.3,1.6,0.6,2.4,0.8c1.3,0.4,2.7,0.8,4,1.2c1.9,0.6,3.3,2.3,3.4,4.3c0.3,2.2-0.8,4.3-2.7,5.3c-3.4,2.1-9.9,1.2-12.6-1.7
	C133.2,32,133.2,31.9,133.2,31.8z"/>
<path class="st0" d="M66.5,27.8v6.6h-4V15.9c0.1,0,0.3,0,0.4-0.1c3,0,5.9,0,8.9,0c2.6,0,4.9,1.8,5.5,4.3c0.8,2.6-0.3,5.4-2.7,6.8
	c-1,0.5-2.1,0.8-3.2,0.8C69.8,28,68.2,27.8,66.5,27.8z M66.5,24.2c1.7,0,3.2,0.1,4.8,0c1.2-0.1,2.1-1.1,2.1-2.3
	c0.1-1.2-0.7-2.3-1.9-2.4c-1.6-0.1-3.3-0.1-4.9,0L66.5,24.2z"/>
<path class="st0" d="M109.5,15.9c1.5,0,2.9,0,4.3,0c0.2,0,0.5,0.3,0.6,0.5c1.3,2,2.5,4.1,3.8,6.1c0.1,0.2,0.3,0.4,0.4,0.7
	c1.4-2.2,2.7-4.3,4-6.5c0.3-0.6,0.9-1,1.6-0.9c1.1,0.1,2.2,0,3.4,0c-0.1,0.2-0.2,0.4-0.3,0.6c-2.1,3.2-4.2,6.5-6.3,9.8
	c-0.3,0.4-0.4,0.9-0.4,1.4c0,2.3,0,4.5,0,6.8h-4.1c-0.1-1.4-0.1-2.7,0-4.1c0.2-2.4-0.5-4.7-2-6.6c-1.7-2.3-3.2-4.8-4.8-7.3
	C109.8,16.3,109.7,16.2,109.5,15.9z"/>
<path class="st0" d="M182.4,15.9h3.9v15h7.9v3.5h-11.8V15.9z"/>
<path class="st0" d="M202.5,15.9h3.9v18.6h-3.9V15.9z"/>
</svg>
